<svg aria-hidden="true" style="position: absolute; width: 0; height: 0; overflow: hidden;" version="1.1" xmlns="http://www.w3.org/2000/svg" xmlns:xlink="http://www.w3.org/1999/xlink">
<defs>
<symbol id="icon-logo-alpha" viewBox="0 0 34 32">
<path fill="var(--color-1)" d="M7.338 7.325c-0.194 0.087-0.318 0.278-0.443 0.673-0.166 0.525-0.143 0.769 0.112 1.169 0.084 0.135 0.084 0.135 0.056 0.296-0.023 0.122-0.023 0.196-0.003 0.296 0.015 0.071 0.023 0.135 0.018 0.143-0.008 0.005-0.099 0.020-0.209 0.036-0.242 0.031-0.268 0.043-0.487 0.255-0.224 0.214-0.367 0.283-1.124 0.538-0.324 0.107-0.66 0.232-0.744 0.275-0.448 0.227-0.887 0.525-1.582 1.083-0.443 0.354-0.535 0.418-1.187 0.846-0.168 0.11-0.362 0.257-0.433 0.329-0.41 0.42-0.428 0.446-0.423 0.657 0.003 0.163 0.11 0.382 0.257 0.53 0.143 0.143 0.66 0.41 0.882 0.456 0.265 0.056 0.606-0.033 0.91-0.237 0.066-0.046 0.127-0.099 0.132-0.125 0.013-0.038 0.028-0.038 0.173-0.005 0.245 0.056 0.555 0.163 0.673 0.229 0.15 0.087 0.298 0.265 0.362 0.443 0.069 0.191 0.214 0.369 0.464 0.581 0.227 0.191 0.454 0.311 0.586 0.311 0.053 0 0.219-0.041 0.364-0.089 0.148-0.048 0.313-0.089 0.369-0.089 0.089 0 0.117 0.015 0.222 0.127 0.344 0.367 0.489 0.708 0.545 1.287 0.020 0.209 0.020 0.283 0 0.288-0.079 0.028-0.204 0.171-0.262 0.306-0.097 0.214-0.122 0.448-0.097 0.851 0.015 0.224 0.013 0.349-0.003 0.369-0.069 0.084-0.209 0.143-0.329 0.138-0.38-0.018-0.627 0.339-0.494 0.713 0.053 0.148 0.293 0.456 0.454 0.583 0.158 0.127 0.492 0.293 0.68 0.339l0.14 0.036 0.115 0.227c0.199 0.392 0.285 0.469 0.599 0.522 0.28 0.046 1.462 0.051 1.692 0.005 0.234-0.046 0.662-0.214 0.803-0.316 0.107-0.076 0.245-0.262 0.311-0.418 0.036-0.089 0.071-0.104 0.316-0.153 0.204-0.041 0.497-0.275 0.657-0.53 0.053-0.087 0.148-0.265 0.204-0.397 0.143-0.318 0.25-0.456 0.497-0.642 0.507-0.375 0.713-0.464 1.33-0.568 0.326-0.056 0.673-0.132 0.805-0.178 0.020-0.008 0.056 0.020 0.087 0.066 0.076 0.12 0.107 0.115 0.127-0.023 0.010-0.066 0.061-0.26 0.117-0.431 0.107-0.334 0.122-0.453 0.059-0.479-0.082-0.031-0.242-0.013-0.397 0.046-0.191 0.071-0.527 0.148-0.953 0.217-0.522 0.087-0.879 0.25-1.376 0.629-0.344 0.26-0.517 0.482-0.647 0.815-0.153 0.395-0.344 0.617-0.586 0.67-0.39 0.089-0.438 0.125-0.629 0.466-0.107 0.191-0.107 0.194-0.306 0.275-0.347 0.145-0.387 0.15-1.177 0.15-0.415 0-0.769-0.010-0.823-0.025-0.112-0.031-0.145-0.071-0.265-0.359-0.051-0.115-0.112-0.237-0.14-0.268-0.033-0.033-0.148-0.079-0.306-0.122-0.377-0.104-0.647-0.283-0.815-0.545-0.107-0.166-0.099-0.181 0.087-0.181 0.153 0 0.166-0.005 0.39-0.158 0.349-0.239 0.331-0.191 0.321-0.828-0.010-0.627 0-0.662 0.194-0.785 0.191-0.122 0.222-0.308 0.145-0.851-0.097-0.665-0.326-1.103-0.851-1.618l-0.178-0.176-0.097 0.041c-0.053 0.023-0.176 0.059-0.275 0.079-0.097 0.020-0.252 0.069-0.341 0.104-0.199 0.082-0.237 0.071-0.487-0.13-0.209-0.168-0.301-0.29-0.395-0.525-0.056-0.143-0.099-0.196-0.275-0.359-0.115-0.104-0.255-0.211-0.311-0.239-0.24-0.122-0.851-0.288-1.052-0.288-0.122 0-0.13 0.005-0.242 0.135-0.14 0.166-0.375 0.285-0.553 0.283-0.168 0-0.589-0.194-0.744-0.344-0.143-0.135-0.155-0.204-0.048-0.268 0.041-0.023 0.099-0.087 0.13-0.14 0.066-0.122 0.191-0.224 0.56-0.461 0.471-0.301 0.583-0.382 1.197-0.861 0.321-0.25 0.65-0.499 0.731-0.553 0.431-0.293 0.81-0.469 1.521-0.711 0.657-0.224 0.859-0.324 1.101-0.548l0.196-0.183 0.219 0.018c0.12 0.008 0.288 0.023 0.375 0.031 0.138 0.015 0.16 0.010 0.222-0.043 0.115-0.104 0.102-0.28-0.036-0.454-0.143-0.178-0.163-0.28-0.099-0.502 0.028-0.097 0.051-0.201 0.051-0.232s-0.051-0.115-0.115-0.186c-0.237-0.268-0.278-0.438-0.181-0.764 0.076-0.257 0.163-0.464 0.194-0.454 0.013 0.005 0.11 0.117 0.219 0.25 0.107 0.132 0.247 0.28 0.313 0.326 0.12 0.087 0.15 0.089 0.334 0.043 0.094-0.023 0.178 0.064 0.178 0.186 0 0.051 0.010 0.11 0.023 0.127 0.013 0.023 0.12 0.043 0.311 0.059 0.255 0.023 0.336 0.020 0.662-0.031l0.375-0.056 0.275 0.155c0.171 0.094 0.357 0.176 0.482 0.211 0.112 0.031 0.227 0.066 0.252 0.079 0.025 0.015 0.186 0.158 0.357 0.318 0.171 0.163 0.423 0.372 0.566 0.466 0.178 0.12 0.324 0.247 0.471 0.408l0.214 0.237 0.023-0.107c0.020-0.097 0.015-0.115-0.053-0.201-0.043-0.051-0.224-0.199-0.405-0.324-0.196-0.138-0.454-0.352-0.642-0.53-0.331-0.318-0.499-0.425-0.67-0.425-0.051 0-0.143-0.028-0.204-0.064-0.26-0.145-0.425-0.227-0.555-0.27-0.171-0.061-0.454-0.064-0.639-0.008-0.076 0.023-0.211 0.043-0.301 0.046-0.176 0.003-0.166 0.010-0.293-0.186-0.082-0.127-0.224-0.191-0.446-0.204l-0.189-0.008-0.117-0.155c-0.171-0.224-0.336-0.4-0.415-0.441-0.112-0.056-0.255-0.066-0.354-0.023z"></path>
<path fill="var(--color-2)" d="M13.954 9.022c-0.097 0.028-0.222 0.074-0.278 0.102-0.104 0.053-0.11 0.074-0.059 0.206 0.010 0.025-0.074 0.112-0.239 0.252-0.234 0.194-0.334 0.316-0.334 0.408 0 0.028-0.232 1.022-0.301 1.284-0.018 0.066-0.038 0.082-0.196 0.127-0.099 0.028-0.194 0.061-0.209 0.071-0.064 0.041-0.031 0.132 0.122 0.367 0.196 0.296 0.204 0.359 0.117 0.81-0.036 0.183-0.071 0.385-0.082 0.451l-0.015 0.122h0.089c0.066 0 0.097-0.015 0.12-0.059 0.018-0.031 0.056-0.089 0.089-0.127 0.064-0.076 0.232-0.563 0.257-0.746 0.008-0.061 0.023-0.12 0.033-0.125 0.041-0.025 1.024-0.222 1.037-0.206 0.038 0.038 0.082 0.387 0.084 0.657 0 0.326 0.005 0.334 0.14 0.27 0.056-0.025 0.064-0.046 0.064-0.15v-0.12l0.217-0.143c0.285-0.191 0.318-0.237 0.318-0.433 0-0.227 0.038-0.334 0.178-0.487 0.069-0.076 0.135-0.181 0.15-0.234 0.046-0.161 0.061-0.397 0.031-0.474-0.025-0.064-0.038-0.069-0.163-0.069h-0.138l-0.018-0.39c-0.018-0.42-0.071-0.917-0.117-1.090-0.033-0.125-0.127-0.278-0.171-0.278-0.015 0-0.059 0.010-0.092 0.023-0.046 0.018-0.079 0.013-0.135-0.025-0.094-0.061-0.273-0.061-0.502 0.005zM13.883 10.515c0.061 0.25 0.117 0.469 0.125 0.487 0.005 0.018-0.028 0.046-0.079 0.069-0.127 0.053-0.563 0.138-0.573 0.11-0.043-0.107 0.318-1.116 0.397-1.116 0.010 0 0.069 0.204 0.13 0.451z"></path>
<path fill="var(--color-2)" d="M23.358 10.12c-0.066 0.051-0.071 0.053-0.138 0.008l-0.071-0.046-0.186 0.194c-0.135 0.143-0.186 0.214-0.186 0.262s-0.053 0.122-0.191 0.27c-0.219 0.234-0.362 0.497-0.446 0.823-0.087 0.339-0.056 0.787 0.064 0.971 0.051 0.079 0.094 0.097 0.178 0.076 0.061-0.015 0.769-0.568 0.864-0.673 0.059-0.069 0.11-0.071 0.13-0.008 0.020 0.069 0.303 0.515 0.375 0.591 0.043 0.048 0.115 0.079 0.26 0.11 0.12 0.028 0.209 0.036 0.222 0.023 0.015-0.015 0.003-0.084-0.028-0.171-0.028-0.082-0.076-0.27-0.107-0.42-0.051-0.242-0.056-0.344-0.059-0.966v-0.693l-0.153-0.104c-0.084-0.059-0.214-0.15-0.29-0.204-0.076-0.056-0.145-0.099-0.153-0.097-0.008 0-0.046 0.025-0.084 0.053zM22.994 11.083c0.020 0.041 0.038 0.094 0.036 0.12 0 0.043-0.405 0.397-0.492 0.431-0.056 0.023-0.053-0.059 0.010-0.224 0.053-0.143 0.11-0.217 0.25-0.334 0.11-0.089 0.148-0.087 0.196 0.008z"></path>
<path fill="var(--color-2)" d="M20.777 10.331c-0.071 0.033-0.219 0.148-0.329 0.255l-0.201 0.191-0.313 0.023c-0.461 0.036-0.487 0.056-0.558 0.461-0.051 0.285-0.048 0.596 0.003 0.749 0.048 0.14 0.112 0.209 0.474 0.504 0.377 0.311 0.377 0.308 0.377 0.955 0 0.642 0.013 0.668 0.219 0.39 0.155-0.209 0.163-0.232 0.219-0.594 0.028-0.189 0.071-0.382 0.099-0.438 0.031-0.061 0.158-0.196 0.308-0.331 0.143-0.127 0.313-0.28 0.382-0.341 0.066-0.061 0.153-0.176 0.191-0.255 0.066-0.135 0.071-0.166 0.082-0.545 0.010-0.484-0.003-0.56-0.089-0.599-0.036-0.018-0.191-0.031-0.364-0.031h-0.301l-0.018-0.097c-0.008-0.051-0.015-0.155-0.015-0.229 0-0.071-0.008-0.132-0.018-0.132-0.013 0.003-0.079 0.031-0.148 0.064zM21.208 11.684c0.023 0.020 0.041 0.056 0.041 0.074 0 0.076-0.273 0.56-0.377 0.673l-0.11 0.117 0.013-0.115c0.008-0.064 0.020-0.26 0.031-0.438 0.018-0.364 0.003-0.341 0.245-0.349 0.076-0.003 0.132 0.010 0.158 0.038zM20.229 11.809c0.008 0.056 0.008 0.245 0 0.42-0.010 0.26-0.020 0.318-0.051 0.318-0.043 0-0.321-0.464-0.357-0.601-0.015-0.051-0.018-0.115-0.010-0.138 0.025-0.064 0.16-0.115 0.29-0.107 0.115 0.005 0.115 0.005 0.127 0.107z"></path>
<path fill="var(--color-2)" d="M18.237 10.42c-0.27 0.046-0.4 0.201-0.545 0.65-0.178 0.548-0.237 1.009-0.166 1.276 0.043 0.163 0.237 0.395 0.433 0.522 0.234 0.15 0.431 0.074 0.65-0.252 0.247-0.375 0.499-0.953 0.499-1.152 0-0.061-0.015-0.076-0.11-0.11l-0.11-0.036-0.15 0.11c-0.084 0.061-0.168 0.112-0.183 0.112-0.087 0-0.194 0.229-0.11 0.229 0.015 0 0.038 0.028 0.056 0.064 0.041 0.089-0.010 0.189-0.166 0.336l-0.13 0.12-0.023-0.087c-0.033-0.127-0.003-0.446 0.071-0.759 0.046-0.196 0.115-0.377 0.242-0.642 0.13-0.27 0.168-0.372 0.145-0.387-0.038-0.023-0.245-0.020-0.405 0.005z"></path>
<path fill="var(--color-2)" d="M16.718 10.711c-0.117 0.033-0.222 0.069-0.234 0.082s-0.122 0.206-0.245 0.431c-0.515 0.95-0.815 1.396-1.103 1.633-0.211 0.173-0.206 0.181 0.102 0.186 0.155 0.003 0.181-0.005 0.318-0.097 0.166-0.11 0.375-0.318 0.622-0.622 0.087-0.107 0.171-0.196 0.181-0.196 0.031 0 0.028 0.064-0.015 0.433-0.053 0.451-0.066 0.408 0.15 0.504 0.183 0.084 0.191 0.084 0.27 0.043 0.089-0.046 0.094-0.043 0.245 0.097 0.079 0.071 0.082 0.071 0.16 0.033 0.061-0.033 0.076-0.056 0.066-0.099-0.025-0.117-0.115-0.627-0.155-0.884-0.023-0.153-0.051-0.553-0.061-0.93-0.010-0.364-0.020-0.665-0.023-0.67-0.005-0.013-0.076 0.003-0.278 0.056z"></path>
<path fill="var(--color-1)" d="M21.539 12.594c-0.084 0.074-0.196 0.168-0.25 0.209l-0.097 0.076h0.176c0.155 0 0.191 0.010 0.336 0.097 0.117 0.069 0.194 0.097 0.275 0.099 0.127 0.003 0.168-0.023 0.099-0.061-0.135-0.076-0.245-0.209-0.308-0.38-0.038-0.097-0.069-0.176-0.071-0.173-0.003 0-0.074 0.061-0.16 0.132z"></path>
<path fill="var(--color-1)" d="M22.357 13.070l-0.076 0.015 0.115 0.084c0.181 0.132 0.224 0.143 0.326 0.069 0.051-0.036 0.099-0.059 0.11-0.051 0.013 0.008 0.064 0.087 0.112 0.176 0.115 0.201 0.115 0.324 0.005 0.405-0.061 0.046-0.104 0.053-0.268 0.048-0.107-0.003-0.229-0.008-0.273-0.013l-0.076-0.008-0.015 0.183c-0.010 0.099-0.025 0.194-0.033 0.206s-0.059 0.033-0.11 0.041c-0.234 0.041-0.237 0.041-0.237 0.112 0 0.036 0.018 0.084 0.038 0.107 0.036 0.038 0.033 0.061-0.025 0.214-0.046 0.12-0.064 0.219-0.064 0.341 0 0.155 0.013 0.201 0.117 0.415 0.117 0.234 0.12 0.245 0.122 0.494l0.003 0.255 0.403 0.015-0.015-0.153c-0.008-0.107-0.043-0.211-0.115-0.352-0.056-0.11-0.11-0.237-0.12-0.283-0.028-0.13 0.048-0.313 0.204-0.487 0.074-0.084 0.143-0.173 0.15-0.201 0.013-0.036 0.066-0.059 0.214-0.092 0.242-0.056 0.382-0.135 0.471-0.262 0.189-0.278 0.14-0.637-0.145-1.034-0.16-0.227-0.224-0.257-0.512-0.26-0.127 0-0.265 0.005-0.306 0.013z"></path>
<path fill="var(--color-1)" d="M18.79 13.131c-0.135 0.031-0.26 0.079-0.545 0.217-0.107 0.051-0.201 0.189-0.227 0.336l-0.020 0.112-0.425 0.163c-0.234 0.089-0.425 0.176-0.425 0.194s0.020 0.048 0.046 0.071c0.041 0.038 0.064 0.033 0.285-0.048 0.629-0.232 0.871-0.347 0.981-0.469 0.031-0.033 0.056-0.107 0.064-0.186 0.013-0.127 0.018-0.135 0.125-0.189 0.061-0.031 0.173-0.071 0.25-0.087l0.138-0.031 0.145 0.14c0.204 0.199 0.232 0.209 0.535 0.201l0.107-0.003v-0.206l-0.066 0.051c-0.043 0.033-0.104 0.053-0.166 0.053-0.084 0-0.11-0.015-0.189-0.115-0.176-0.214-0.336-0.268-0.611-0.206z"></path>
<path fill="var(--color-1)" d="M14.869 13.496c0.214 0.339 0.27 0.382 0.53 0.408 0.115 0.010 0.166 0.005 0.181-0.018 0.028-0.043-0.033-0.076-0.153-0.076-0.079-0.003-0.112-0.015-0.15-0.066l-0.048-0.066 0.12-0.102c0.161-0.138 0.158-0.183-0.010-0.163-0.079 0.010-0.201 0-0.313-0.023-0.099-0.020-0.199-0.038-0.217-0.038s0.005 0.059 0.061 0.145z"></path>
<path fill="var(--color-2)" d="M15.924 14.074c0 0.010 0.010 0.038 0.025 0.064 0.018 0.036-0.005 0.135-0.092 0.387-0.061 0.189-0.181 0.578-0.265 0.866-0.171 0.596-0.178 0.614-0.464 1.185-0.257 0.52-0.273 0.606-0.145 0.854 0.112 0.217 0.11 0.341-0.023 0.775-0.053 0.181-0.132 0.466-0.171 0.632l-0.071 0.301 0.094 0.132c0.051 0.071 0.168 0.232 0.257 0.357l0.163 0.222 0.099-0.171c0.056-0.097 0.173-0.318 0.262-0.497 0.153-0.303 0.168-0.324 0.227-0.311 0.092 0.018 0.204 0.097 0.522 0.367 0.372 0.311 0.527 0.415 0.864 0.573 0.346 0.163 0.532 0.227 0.614 0.206 0.033-0.008 0.168-0.084 0.298-0.166 0.209-0.132 0.242-0.145 0.288-0.115 0.046 0.028 0.074 0.010 0.316-0.224l0.268-0.257-0.115-0.099c-0.061-0.053-0.224-0.173-0.362-0.268-0.772-0.532-1.050-0.757-1.208-0.983l-0.084-0.115 0.683-0.787c0.884-1.022 1.276-1.546 1.513-2.033 0.13-0.27 0.125-0.329-0.043-0.441-0.069-0.046-0.155-0.089-0.186-0.099-0.204-0.051-0.777 0.336-0.907 0.611-0.046 0.097-0.046 0.099 0.013 0.161l0.061 0.064-0.071 0.132c-0.089 0.171-0.405 0.578-0.808 1.037-0.331 0.38-0.543 0.576-0.721 0.665-0.099 0.051-0.104 0.053-0.138 0.008-0.059-0.079-0.038-0.171 0.135-0.639 0.4-1.075 0.471-1.468 0.326-1.761-0.061-0.122-0.408-0.482-0.561-0.583-0.064-0.041-0.596-0.084-0.596-0.048z"></path>
<path fill="var(--color-2)" d="M27.478 15.661c-0.028 0.008-0.074 0.038-0.102 0.071-0.056 0.059-0.252 0.099-0.611 0.127-0.324 0.028-0.339 0.031-0.367 0.122-0.048 0.153-0.26 1.279-0.303 1.615-0.036 0.283-0.036 0.372-0.010 0.573 0.031 0.229 0.166 0.876 0.191 0.902 0.015 0.015 0.517 0.051 0.553 0.041 0.043-0.015 0.117-0.178 0.293-0.655 0.26-0.708 0.341-1.019 0.459-1.745 0.064-0.405 0.15-0.887 0.181-1.011 0.015-0.056 0.010-0.059-0.107-0.056-0.069 0.003-0.148 0.010-0.176 0.015z"></path>
<path fill="var(--color-2)" d="M29.299 15.717c-0.405 0.132-0.955 0.341-0.996 0.377-0.102 0.087-0.206 0.555-0.283 1.243-0.051 0.476-0.043 1.722 0.013 2.025 0.025 0.13 0.048 0.245 0.053 0.25 0.008 0.005 0.112-0.025 0.237-0.069l0.224-0.076 0.066-0.176c0.148-0.392 0.566-1.040 0.889-1.371l0.166-0.168 0.018 0.25c0.033 0.433 0.102 0.632 0.242 0.69 0.112 0.046 0.229 0.025 0.454-0.084 0.341-0.166 0.627-0.415 0.912-0.792 0.097-0.132 0.186-0.229 0.196-0.219s0.033 0.145 0.048 0.301c0.074 0.678 0.163 1.032 0.26 1.032 0.028 0 0.143-0.048 0.257-0.104l0.204-0.107-0.018-0.132-0.015-0.132 0.199-0.071c0.265-0.094 0.382-0.155 0.413-0.214 0.038-0.069 0.148-0.629 0.196-0.996 0.023-0.176 0.043-0.525 0.043-0.775l0.005-0.459-0.115-0.036c-0.145-0.046-1.157-0.048-1.21-0.005-0.020 0.015-0.15 0.227-0.29 0.466-0.308 0.53-0.461 0.754-0.68 0.983-0.255 0.273-0.4 0.318-0.538 0.173-0.27-0.288-0.561-1.032-0.622-1.597-0.025-0.227-0.038-0.28-0.071-0.278-0.023 0-0.138 0.033-0.257 0.071z"></path>
<path fill="var(--color-2)" d="M24.532 15.732c-0.428 0.053-0.568 0.14-0.724 0.446-0.089 0.181-0.285 0.759-0.369 1.090-0.155 0.624-0.168 1.248-0.031 1.521 0.020 0.041 0.11 0.163 0.199 0.268 0.454 0.538 0.792 0.637 1.139 0.331 0.301-0.262 0.871-1.355 0.996-1.903 0.061-0.27 0.059-0.283-0.066-0.339-0.176-0.079-0.232-0.066-0.502 0.112-0.135 0.089-0.28 0.181-0.326 0.204-0.158 0.082-0.176 0.209-0.048 0.331 0.082 0.074 0.087 0.089 0.069 0.173-0.013 0.051-0.046 0.132-0.076 0.181-0.071 0.117-0.352 0.382-0.39 0.369-0.138-0.046-0.031-0.994 0.186-1.651 0.046-0.132 0.183-0.446 0.306-0.693 0.125-0.25 0.227-0.459 0.227-0.466 0-0.023-0.303-0.008-0.589 0.025z"></path>
<path fill="var(--color-2)" d="M21.511 15.957c-0.074 0.031-0.239 0.143-0.369 0.247-0.418 0.341-0.395 0.313-0.433 0.573l-0.033 0.229-0.115 0.023c-0.064 0.013-0.117 0.025-0.122 0.028-0.005 0.005-0.043 0.211-0.084 0.461-0.11 0.637-0.089 0.767 0.125 0.818l0.094 0.023 0.015 0.227c0.010 0.127 0.025 0.848 0.033 1.605 0.015 1.004 0.028 1.381 0.048 1.394 0.069 0.043 0.117 0.005 0.318-0.255 0.247-0.318 0.268-0.377 0.321-0.889 0.043-0.4 0.076-0.566 0.13-0.668 0.053-0.099 0.239-0.283 0.739-0.731 0.247-0.219 0.489-0.451 0.538-0.515s0.115-0.196 0.145-0.296c0.051-0.168 0.056-0.229 0.053-0.805 0-0.344-0.008-0.655-0.018-0.69-0.036-0.143-0.344-0.199-0.854-0.158-0.145 0.013-0.27 0.013-0.275 0.003-0.008-0.010-0.018-0.168-0.028-0.352-0.018-0.377-0.010-0.367-0.229-0.273zM22.082 18.025c0.089 0.038 0.089 0.041 0.076 0.153-0.015 0.15-0.117 0.352-0.38 0.762-0.191 0.298-0.28 0.405-0.308 0.372-0.010-0.013 0.048-1.121 0.064-1.236 0.005-0.033 0.033-0.056 0.084-0.066 0.143-0.031 0.369-0.023 0.464 0.015z"></path>
<path fill="var(--color-1)" d="M19.962 16.074c-0.028 0.013-0.13 0.076-0.224 0.14-0.153 0.102-0.191 0.117-0.308 0.117-0.074 0-0.201 0.023-0.283 0.051s-0.168 0.051-0.191 0.051c-0.023 0-0.097 0.066-0.166 0.145-0.069 0.082-0.181 0.214-0.252 0.296-0.122 0.14-0.125 0.148-0.079 0.196 0.138 0.153 0.448 0.222 0.642 0.14 0.048-0.020 0.173-0.046 0.273-0.056 0.099-0.008 0.224-0.031 0.275-0.048 0.115-0.041 0.375-0.211 0.52-0.341 0.056-0.053 0.117-0.099 0.132-0.104s0.041-0.074 0.056-0.15c0.018-0.089 0.053-0.173 0.104-0.237l0.076-0.097-0.12-0.051c-0.132-0.059-0.377-0.087-0.456-0.051z"></path>
</symbol>
</defs>
</svg>

