<svg aria-hidden="true" style="position: absolute; width: 0; height: 0; overflow: hidden;" version="1.1" xmlns="http://www.w3.org/2000/svg" xmlns:xlink="http://www.w3.org/1999/xlink">
<defs>
<symbol id="icon-grey" viewBox="0 0 32 32">
<path  d="M7.412 9.593c-0.172 0.077-0.283 0.247-0.395 0.599-0.147 0.467-0.127 0.685 0.1 1.041 0.075 0.12 0.075 0.12 0.050 0.263-0.020 0.109-0.020 0.175-0.002 0.263 0.014 0.063 0.020 0.12 0.016 0.127-0.007 0.005-0.088 0.018-0.186 0.032-0.215 0.027-0.238 0.039-0.433 0.227-0.2 0.191-0.327 0.252-1 0.479-0.288 0.095-0.587 0.206-0.662 0.245-0.399 0.202-0.789 0.467-1.408 0.964-0.395 0.315-0.476 0.372-1.057 0.753-0.15 0.098-0.322 0.229-0.385 0.293-0.365 0.374-0.381 0.397-0.377 0.585 0.002 0.145 0.098 0.34 0.229 0.472 0.127 0.127 0.587 0.365 0.785 0.406 0.236 0.050 0.54-0.029 0.81-0.211 0.059-0.041 0.113-0.088 0.118-0.111 0.011-0.034 0.025-0.034 0.154-0.005 0.218 0.050 0.494 0.145 0.599 0.204 0.134 0.077 0.265 0.236 0.322 0.395 0.061 0.17 0.191 0.329 0.413 0.517 0.202 0.17 0.404 0.277 0.522 0.277 0.048 0 0.195-0.036 0.324-0.079 0.132-0.043 0.279-0.079 0.329-0.079 0.079 0 0.104 0.014 0.197 0.113 0.306 0.327 0.435 0.631 0.485 1.145 0.018 0.186 0.018 0.252 0 0.256-0.070 0.025-0.181 0.152-0.234 0.272-0.086 0.191-0.109 0.399-0.086 0.758 0.014 0.2 0.011 0.311-0.002 0.329-0.061 0.075-0.186 0.127-0.293 0.122-0.338-0.016-0.558 0.302-0.44 0.635 0.048 0.132 0.261 0.406 0.404 0.519 0.141 0.113 0.438 0.261 0.606 0.302l0.125 0.032 0.102 0.202c0.177 0.349 0.254 0.417 0.533 0.465 0.25 0.041 1.302 0.045 1.506 0.005 0.209-0.041 0.59-0.191 0.714-0.281 0.095-0.068 0.218-0.234 0.277-0.372 0.032-0.079 0.063-0.093 0.281-0.136 0.181-0.036 0.442-0.245 0.585-0.472 0.048-0.077 0.132-0.236 0.181-0.354 0.127-0.283 0.222-0.406 0.442-0.572 0.451-0.333 0.635-0.413 1.184-0.506 0.29-0.050 0.599-0.118 0.717-0.159 0.018-0.007 0.050 0.018 0.077 0.059 0.068 0.107 0.095 0.102 0.113-0.020 0.009-0.059 0.054-0.231 0.104-0.383 0.095-0.297 0.109-0.404 0.052-0.426-0.073-0.027-0.215-0.011-0.354 0.041-0.17 0.064-0.469 0.132-0.848 0.193-0.465 0.077-0.782 0.222-1.225 0.56-0.306 0.231-0.46 0.429-0.576 0.726-0.136 0.352-0.306 0.549-0.522 0.596-0.347 0.079-0.39 0.111-0.56 0.415-0.095 0.17-0.095 0.172-0.272 0.245-0.308 0.129-0.345 0.134-1.048 0.134-0.37 0-0.685-0.009-0.733-0.023-0.1-0.027-0.129-0.064-0.236-0.32-0.045-0.102-0.1-0.211-0.125-0.238-0.029-0.029-0.132-0.070-0.272-0.109-0.336-0.093-0.576-0.252-0.726-0.485-0.095-0.147-0.088-0.161 0.077-0.161 0.136 0 0.147-0.005 0.347-0.141 0.311-0.213 0.295-0.17 0.286-0.737-0.009-0.558 0-0.59 0.172-0.698 0.17-0.109 0.197-0.274 0.129-0.758-0.086-0.592-0.29-0.982-0.758-1.44l-0.159-0.156-0.086 0.036c-0.048 0.020-0.156 0.052-0.245 0.070-0.086 0.018-0.225 0.061-0.304 0.093-0.177 0.073-0.211 0.064-0.433-0.116-0.186-0.15-0.268-0.259-0.352-0.467-0.050-0.127-0.088-0.175-0.245-0.32-0.102-0.093-0.227-0.188-0.277-0.213-0.213-0.109-0.757-0.256-0.937-0.256-0.109 0-0.116 0.005-0.215 0.12-0.125 0.147-0.333 0.254-0.492 0.252-0.15 0-0.524-0.172-0.662-0.306-0.127-0.12-0.138-0.181-0.043-0.238 0.036-0.020 0.088-0.077 0.116-0.125 0.059-0.109 0.17-0.2 0.499-0.41 0.42-0.268 0.519-0.34 1.066-0.767 0.286-0.222 0.578-0.444 0.651-0.492 0.383-0.261 0.721-0.417 1.354-0.633 0.585-0.2 0.764-0.288 0.98-0.488l0.175-0.163 0.195 0.016c0.107 0.007 0.256 0.020 0.333 0.027 0.122 0.014 0.143 0.009 0.197-0.039 0.102-0.093 0.091-0.249-0.032-0.404-0.127-0.159-0.145-0.249-0.088-0.447 0.025-0.086 0.045-0.179 0.045-0.206s-0.045-0.102-0.102-0.166c-0.211-0.238-0.247-0.39-0.161-0.68 0.068-0.229 0.145-0.413 0.172-0.404 0.011 0.005 0.098 0.104 0.195 0.222 0.095 0.118 0.22 0.249 0.279 0.29 0.107 0.077 0.134 0.079 0.297 0.039 0.084-0.020 0.159 0.057 0.159 0.166 0 0.045 0.009 0.098 0.020 0.113 0.011 0.020 0.107 0.039 0.277 0.052 0.227 0.020 0.299 0.018 0.59-0.027l0.333-0.050 0.245 0.138c0.152 0.084 0.318 0.156 0.429 0.188 0.1 0.027 0.202 0.059 0.225 0.070 0.023 0.014 0.166 0.141 0.318 0.283 0.152 0.145 0.377 0.331 0.504 0.415 0.159 0.107 0.288 0.22 0.42 0.363l0.191 0.211 0.020-0.095c0.018-0.086 0.014-0.102-0.048-0.179-0.039-0.045-0.2-0.177-0.361-0.288-0.175-0.123-0.404-0.313-0.572-0.472-0.295-0.283-0.444-0.379-0.596-0.379-0.045 0-0.127-0.025-0.181-0.057-0.231-0.129-0.379-0.202-0.494-0.24-0.152-0.054-0.404-0.057-0.569-0.007-0.068 0.020-0.188 0.039-0.268 0.041-0.156 0.002-0.147 0.009-0.261-0.166-0.073-0.113-0.2-0.17-0.397-0.181l-0.168-0.007-0.104-0.138c-0.152-0.2-0.299-0.356-0.37-0.392-0.1-0.050-0.227-0.059-0.315-0.020z"></path>
<path  d="M13.301 11.103c-0.086 0.025-0.197 0.066-0.247 0.091-0.093 0.048-0.098 0.066-0.052 0.184 0.009 0.023-0.066 0.1-0.213 0.225-0.209 0.172-0.297 0.281-0.297 0.363 0 0.025-0.206 0.909-0.268 1.143-0.016 0.059-0.034 0.073-0.175 0.113-0.088 0.025-0.172 0.054-0.186 0.063-0.057 0.036-0.027 0.118 0.109 0.327 0.175 0.263 0.181 0.32 0.104 0.721-0.032 0.163-0.063 0.342-0.073 0.401l-0.014 0.109h0.079c0.059 0 0.086-0.014 0.107-0.052 0.016-0.027 0.050-0.079 0.079-0.113 0.057-0.068 0.206-0.501 0.229-0.664 0.007-0.054 0.020-0.107 0.029-0.111 0.036-0.023 0.912-0.197 0.923-0.184 0.034 0.034 0.073 0.345 0.075 0.585 0 0.29 0.005 0.297 0.125 0.24 0.050-0.023 0.057-0.041 0.057-0.134v-0.107l0.193-0.127c0.254-0.17 0.283-0.211 0.283-0.386 0-0.202 0.034-0.297 0.159-0.433 0.061-0.068 0.12-0.161 0.134-0.209 0.041-0.143 0.054-0.354 0.027-0.422-0.023-0.057-0.034-0.061-0.145-0.061h-0.123l-0.016-0.347c-0.016-0.374-0.063-0.816-0.104-0.971-0.029-0.111-0.113-0.247-0.152-0.247-0.014 0-0.052 0.009-0.082 0.020-0.041 0.016-0.070 0.011-0.12-0.023-0.084-0.054-0.243-0.054-0.447 0.005zM13.238 12.432c0.054 0.222 0.104 0.417 0.111 0.433 0.005 0.016-0.025 0.041-0.070 0.061-0.113 0.048-0.501 0.123-0.51 0.098-0.039-0.095 0.283-0.993 0.354-0.993 0.009 0 0.061 0.181 0.116 0.401z"></path>
<path d="M21.672 12.081c-0.059 0.045-0.064 0.048-0.122 0.007l-0.064-0.041-0.166 0.172c-0.12 0.127-0.166 0.191-0.166 0.234s-0.048 0.109-0.17 0.24c-0.195 0.209-0.322 0.442-0.397 0.733-0.077 0.302-0.050 0.701 0.057 0.864 0.045 0.070 0.084 0.086 0.159 0.068 0.054-0.014 0.685-0.506 0.769-0.599 0.052-0.061 0.098-0.063 0.116-0.007 0.018 0.061 0.27 0.458 0.333 0.526 0.039 0.043 0.102 0.070 0.231 0.098 0.107 0.025 0.186 0.032 0.197 0.020 0.014-0.014 0.002-0.075-0.025-0.152-0.025-0.073-0.068-0.24-0.095-0.374-0.045-0.215-0.050-0.306-0.052-0.86v-0.617l-0.136-0.093c-0.075-0.052-0.191-0.134-0.259-0.181-0.068-0.050-0.129-0.088-0.136-0.086-0.007 0-0.041 0.023-0.075 0.048zM21.348 12.938c0.018 0.036 0.034 0.084 0.032 0.107 0 0.039-0.361 0.354-0.438 0.383-0.050 0.020-0.048-0.052 0.009-0.2 0.048-0.127 0.098-0.193 0.222-0.297 0.098-0.079 0.132-0.077 0.175 0.007z"></path>
<path d="M19.375 12.269c-0.064 0.029-0.195 0.132-0.293 0.227l-0.179 0.17-0.279 0.020c-0.41 0.032-0.433 0.050-0.497 0.41-0.045 0.254-0.043 0.531 0.002 0.667 0.043 0.125 0.1 0.186 0.422 0.449 0.336 0.277 0.336 0.274 0.336 0.85 0 0.572 0.011 0.594 0.195 0.347 0.138-0.186 0.145-0.206 0.195-0.528 0.025-0.168 0.064-0.34 0.088-0.39 0.027-0.054 0.141-0.175 0.274-0.295 0.127-0.113 0.279-0.249 0.34-0.304 0.059-0.054 0.136-0.156 0.17-0.227 0.059-0.12 0.064-0.147 0.073-0.485 0.009-0.431-0.002-0.499-0.079-0.533-0.032-0.016-0.17-0.027-0.324-0.027h-0.268l-0.016-0.086c-0.007-0.045-0.014-0.138-0.014-0.204 0-0.063-0.007-0.118-0.016-0.118-0.011 0.002-0.070 0.027-0.132 0.057zM19.758 13.473c0.020 0.018 0.036 0.050 0.036 0.066 0 0.068-0.243 0.499-0.336 0.599l-0.098 0.104 0.011-0.102c0.007-0.057 0.018-0.231 0.027-0.39 0.016-0.324 0.002-0.304 0.218-0.311 0.068-0.002 0.118 0.009 0.141 0.034zM18.887 13.584c0.007 0.050 0.007 0.218 0 0.374-0.009 0.231-0.018 0.283-0.045 0.283-0.039 0-0.286-0.413-0.318-0.535-0.014-0.045-0.016-0.102-0.009-0.123 0.023-0.057 0.143-0.102 0.259-0.095 0.102 0.005 0.102 0.005 0.113 0.095z"></path>
<path d="M17.114 12.348c-0.24 0.041-0.356 0.179-0.485 0.578-0.159 0.488-0.211 0.898-0.147 1.136 0.039 0.145 0.211 0.352 0.386 0.465 0.209 0.134 0.383 0.066 0.578-0.225 0.22-0.333 0.445-0.848 0.445-1.025 0-0.054-0.014-0.068-0.098-0.098l-0.098-0.032-0.134 0.098c-0.075 0.054-0.15 0.1-0.163 0.1-0.077 0-0.172 0.204-0.098 0.204 0.014 0 0.034 0.025 0.050 0.057 0.036 0.079-0.009 0.168-0.147 0.299l-0.116 0.107-0.020-0.077c-0.029-0.113-0.002-0.397 0.064-0.676 0.041-0.175 0.102-0.336 0.215-0.572 0.116-0.24 0.15-0.331 0.129-0.345-0.034-0.020-0.218-0.018-0.361 0.005z"></path>
<path d="M15.762 12.607c-0.104 0.029-0.197 0.061-0.209 0.073s-0.109 0.184-0.218 0.383c-0.458 0.846-0.726 1.243-0.982 1.454-0.188 0.154-0.184 0.161 0.091 0.166 0.138 0.002 0.161-0.005 0.283-0.086 0.147-0.098 0.333-0.283 0.553-0.553 0.077-0.095 0.152-0.175 0.161-0.175 0.027 0 0.025 0.057-0.014 0.386-0.048 0.401-0.059 0.363 0.134 0.449 0.163 0.075 0.17 0.075 0.24 0.039 0.079-0.041 0.084-0.039 0.218 0.086 0.070 0.063 0.073 0.063 0.143 0.029 0.054-0.029 0.068-0.050 0.059-0.088-0.023-0.104-0.102-0.558-0.138-0.787-0.020-0.136-0.045-0.492-0.054-0.828-0.009-0.324-0.018-0.592-0.020-0.596-0.005-0.011-0.068 0.002-0.247 0.050z"></path>
<path d="M20.053 14.283c-0.075 0.066-0.175 0.15-0.222 0.186l-0.086 0.068h0.156c0.138 0 0.17 0.009 0.299 0.086 0.104 0.061 0.172 0.086 0.245 0.088 0.113 0.002 0.15-0.020 0.088-0.054-0.12-0.068-0.218-0.186-0.274-0.338-0.034-0.086-0.061-0.156-0.064-0.154-0.002 0-0.066 0.054-0.143 0.118z"></path>
<path d="M20.781 14.707l-0.068 0.014 0.102 0.075c0.161 0.118 0.2 0.127 0.29 0.061 0.045-0.032 0.088-0.052 0.098-0.045 0.011 0.007 0.057 0.077 0.1 0.156 0.102 0.179 0.102 0.288 0.005 0.361-0.054 0.041-0.093 0.048-0.238 0.043-0.095-0.002-0.204-0.007-0.243-0.011l-0.068-0.007-0.014 0.163c-0.009 0.088-0.023 0.172-0.029 0.184s-0.052 0.029-0.098 0.036c-0.209 0.036-0.211 0.036-0.211 0.1 0 0.032 0.016 0.075 0.034 0.095 0.032 0.034 0.029 0.054-0.023 0.19-0.041 0.107-0.057 0.195-0.057 0.304 0 0.138 0.011 0.179 0.104 0.37 0.104 0.209 0.107 0.218 0.109 0.44l0.002 0.227 0.358 0.014-0.014-0.136c-0.007-0.095-0.039-0.188-0.102-0.313-0.050-0.098-0.098-0.211-0.107-0.252-0.025-0.116 0.043-0.279 0.181-0.433 0.066-0.075 0.127-0.154 0.134-0.179 0.011-0.032 0.059-0.052 0.191-0.082 0.215-0.050 0.34-0.12 0.42-0.234 0.168-0.247 0.125-0.567-0.129-0.921-0.143-0.202-0.2-0.229-0.456-0.231-0.113 0-0.236 0.005-0.272 0.011z"></path>
<path d="M17.606 14.761c-0.12 0.027-0.231 0.070-0.485 0.193-0.095 0.045-0.179 0.168-0.202 0.299l-0.018 0.1-0.379 0.145c-0.209 0.079-0.379 0.156-0.379 0.172s0.018 0.043 0.041 0.063c0.036 0.034 0.057 0.029 0.254-0.043 0.56-0.206 0.776-0.308 0.873-0.417 0.027-0.029 0.050-0.095 0.057-0.166 0.011-0.113 0.016-0.12 0.111-0.168 0.054-0.027 0.154-0.063 0.222-0.077l0.122-0.027 0.129 0.125c0.181 0.177 0.206 0.186 0.476 0.179l0.095-0.002v-0.184l-0.059 0.045c-0.039 0.029-0.093 0.048-0.147 0.048-0.075 0-0.098-0.014-0.168-0.102-0.156-0.191-0.299-0.238-0.544-0.184z"></path>
<path d="M14.116 15.086c0.191 0.302 0.24 0.34 0.472 0.363 0.102 0.009 0.147 0.005 0.161-0.016 0.025-0.039-0.029-0.068-0.136-0.068-0.070-0.002-0.1-0.014-0.134-0.059l-0.043-0.059 0.107-0.091c0.143-0.123 0.141-0.163-0.009-0.145-0.070 0.009-0.179 0-0.279-0.020-0.088-0.018-0.177-0.034-0.193-0.034s0.005 0.052 0.054 0.129z"></path>
<path d="M15.055 15.601c0 0.009 0.009 0.034 0.023 0.057 0.016 0.032-0.005 0.12-0.082 0.345-0.054 0.168-0.161 0.515-0.236 0.771-0.152 0.531-0.159 0.547-0.413 1.055-0.229 0.463-0.243 0.54-0.129 0.76 0.1 0.193 0.098 0.304-0.020 0.689-0.048 0.161-0.118 0.415-0.152 0.562l-0.063 0.268 0.084 0.118c0.045 0.064 0.15 0.206 0.229 0.318l0.145 0.197 0.088-0.152c0.050-0.086 0.154-0.283 0.234-0.442 0.136-0.27 0.15-0.288 0.202-0.277 0.082 0.016 0.181 0.086 0.465 0.327 0.331 0.277 0.469 0.37 0.769 0.51 0.308 0.145 0.474 0.202 0.547 0.184 0.029-0.007 0.15-0.075 0.265-0.147 0.186-0.118 0.215-0.129 0.256-0.102 0.041 0.025 0.066 0.009 0.281-0.2l0.238-0.229-0.102-0.088c-0.054-0.048-0.2-0.154-0.322-0.238-0.687-0.474-0.934-0.674-1.075-0.875l-0.075-0.102 0.608-0.701c0.787-0.909 1.136-1.377 1.347-1.81 0.116-0.24 0.111-0.293-0.039-0.392-0.061-0.041-0.138-0.079-0.166-0.088-0.181-0.045-0.692 0.299-0.807 0.544-0.041 0.086-0.041 0.088 0.011 0.143l0.054 0.057-0.064 0.118c-0.079 0.152-0.361 0.515-0.719 0.923-0.295 0.338-0.483 0.512-0.642 0.592-0.088 0.045-0.093 0.048-0.123 0.007-0.052-0.070-0.034-0.152 0.12-0.569 0.356-0.957 0.42-1.306 0.29-1.567-0.054-0.109-0.363-0.429-0.499-0.519-0.057-0.036-0.531-0.075-0.531-0.043z"></path>
<path d="M25.34 17.013c-0.025 0.007-0.066 0.034-0.091 0.064-0.050 0.052-0.225 0.088-0.544 0.113-0.288 0.025-0.302 0.027-0.327 0.109-0.043 0.136-0.231 1.139-0.27 1.438-0.032 0.252-0.032 0.331-0.009 0.51 0.027 0.204 0.147 0.78 0.17 0.803 0.014 0.014 0.46 0.045 0.492 0.036 0.039-0.014 0.104-0.159 0.261-0.583 0.231-0.631 0.304-0.907 0.408-1.553 0.057-0.361 0.134-0.789 0.161-0.9 0.014-0.050 0.009-0.052-0.095-0.050-0.061 0.002-0.132 0.009-0.156 0.014z"></path>
<path d="M26.961 17.063c-0.361 0.118-0.85 0.304-0.887 0.336-0.091 0.077-0.184 0.494-0.252 1.107-0.045 0.424-0.039 1.533 0.011 1.803 0.023 0.116 0.043 0.218 0.048 0.222 0.007 0.005 0.1-0.023 0.211-0.061l0.2-0.068 0.059-0.156c0.132-0.349 0.503-0.925 0.791-1.22l0.147-0.15 0.016 0.222c0.029 0.386 0.091 0.562 0.215 0.615 0.1 0.041 0.204 0.023 0.404-0.075 0.304-0.147 0.558-0.37 0.812-0.705 0.086-0.118 0.166-0.204 0.175-0.195s0.029 0.129 0.043 0.268c0.066 0.603 0.145 0.918 0.231 0.918 0.025 0 0.127-0.043 0.229-0.093l0.181-0.095-0.016-0.118-0.014-0.118 0.177-0.064c0.236-0.084 0.34-0.138 0.367-0.191 0.034-0.061 0.132-0.56 0.175-0.887 0.020-0.156 0.039-0.467 0.039-0.689l0.005-0.408-0.102-0.032c-0.129-0.041-1.030-0.043-1.077-0.005-0.018 0.014-0.134 0.202-0.259 0.415-0.274 0.472-0.41 0.671-0.606 0.875-0.227 0.243-0.356 0.283-0.479 0.154-0.24-0.256-0.499-0.918-0.553-1.422-0.023-0.202-0.034-0.25-0.064-0.247-0.020 0-0.122 0.029-0.229 0.064z"></path>
<path d="M22.718 17.077c-0.381 0.048-0.506 0.125-0.644 0.397-0.079 0.161-0.254 0.676-0.329 0.971-0.138 0.556-0.15 1.111-0.027 1.354 0.018 0.036 0.098 0.145 0.177 0.238 0.404 0.479 0.705 0.567 1.014 0.295 0.268-0.234 0.776-1.206 0.887-1.694 0.054-0.24 0.052-0.252-0.059-0.302-0.156-0.070-0.206-0.059-0.447 0.1-0.12 0.079-0.25 0.161-0.29 0.181-0.141 0.073-0.156 0.186-0.043 0.295 0.073 0.066 0.077 0.079 0.061 0.154-0.011 0.045-0.041 0.118-0.068 0.161-0.064 0.104-0.313 0.34-0.347 0.329-0.122-0.041-0.027-0.884 0.166-1.47 0.041-0.118 0.163-0.397 0.272-0.617 0.111-0.222 0.202-0.408 0.202-0.415 0-0.020-0.27-0.007-0.524 0.023z"></path>
<path d="M20.028 17.277c-0.066 0.027-0.213 0.127-0.329 0.22-0.372 0.304-0.352 0.279-0.386 0.51l-0.029 0.204-0.102 0.020c-0.057 0.011-0.104 0.023-0.109 0.025-0.005 0.005-0.039 0.188-0.075 0.41-0.098 0.567-0.079 0.683 0.111 0.728l0.084 0.020 0.014 0.202c0.009 0.113 0.023 0.755 0.029 1.429 0.014 0.894 0.025 1.229 0.043 1.241 0.061 0.039 0.104 0.005 0.283-0.227 0.22-0.283 0.238-0.336 0.286-0.791 0.039-0.356 0.068-0.503 0.116-0.594 0.048-0.088 0.213-0.252 0.658-0.651 0.22-0.195 0.435-0.401 0.479-0.458s0.102-0.175 0.129-0.263c0.045-0.15 0.050-0.204 0.048-0.717 0-0.306-0.007-0.583-0.016-0.615-0.032-0.127-0.306-0.177-0.76-0.141-0.129 0.011-0.24 0.011-0.245 0.002-0.007-0.009-0.016-0.15-0.025-0.313-0.016-0.336-0.009-0.327-0.204-0.243zM20.536 19.118c0.079 0.034 0.079 0.036 0.068 0.136-0.014 0.134-0.104 0.313-0.338 0.678-0.17 0.265-0.25 0.361-0.274 0.331-0.009-0.011 0.043-0.998 0.057-1.1 0.005-0.029 0.029-0.050 0.075-0.059 0.127-0.027 0.329-0.020 0.413 0.014z"></path>
<path d="M18.649 17.381c-0.025 0.011-0.116 0.068-0.2 0.125-0.136 0.091-0.17 0.104-0.274 0.104-0.066 0-0.179 0.020-0.252 0.045s-0.15 0.045-0.17 0.045c-0.020 0-0.086 0.059-0.147 0.129-0.061 0.073-0.161 0.191-0.225 0.263-0.109 0.125-0.111 0.132-0.070 0.175 0.122 0.136 0.399 0.197 0.572 0.125 0.043-0.018 0.154-0.041 0.243-0.050 0.088-0.007 0.2-0.027 0.245-0.043 0.102-0.036 0.333-0.188 0.463-0.304 0.050-0.048 0.104-0.088 0.118-0.093s0.036-0.066 0.050-0.134c0.016-0.079 0.048-0.154 0.093-0.211l0.068-0.086-0.107-0.045c-0.118-0.052-0.336-0.077-0.406-0.045z"></path>
</symbol>
</defs>
</svg>
